<svg xmlns="http://www.w3.org/2000/svg" width="69.314" height="80" viewBox="0 0 69.314 80">
  <path id="interly-logo" d="M64.741,95.665a57.048,57.048,0,0,0,3.439-10.018A41.272,41.272,0,0,0,69.3,74.911q-.127-4.989-4.655-6.407t-12.5.695a43.846,43.846,0,0,0-8.639,3.354,55.6,55.6,0,0,0-8.323,5.226,58.022,58.022,0,0,0-7.45,6.742,48.874,48.874,0,0,0-6.008,7.9,38.2,38.2,0,0,0-3.918,8.658,27.794,27.794,0,0,0-1.255,9.022,7.748,7.748,0,0,0,1.384,4.575,6.4,6.4,0,0,0,3.306,2.372,8.258,8.258,0,0,0,4.433.021,12.551,12.551,0,0,0,4.885-2.563,2.936,2.936,0,0,0,1.029-1.273,1.449,1.449,0,0,0,.062-1.1.871.871,0,0,0-.772-.474,2.8,2.8,0,0,0-1.54.5,3.824,3.824,0,0,1-2.121.7,2.974,2.974,0,0,1-1.8-.582,3.237,3.237,0,0,1-1.126-1.729,6.885,6.885,0,0,1-.16-2.8,18.411,18.411,0,0,1,1.38-4.676,45.374,45.374,0,0,1,3.244-6.291,59.02,59.02,0,0,1,4.948-6.88,51.173,51.173,0,0,1,6.522-6.546,42.674,42.674,0,0,1,8.031-5.3A33.354,33.354,0,0,1,57.739,74.9q3.275-.641,4.464.979t-.351,5.941a102.814,102.814,0,0,1-5.59,12.551,139.525,139.525,0,0,1-7.614,12.81,136.465,136.465,0,0,1-9.026,12.032,107.534,107.534,0,0,1-9.8,10.273,64.08,64.08,0,0,1-9.926,7.532,27.611,27.611,0,0,1-9.38,3.775,6.781,6.781,0,0,1-3.692-.185,2.3,2.3,0,0,1-1.512-2.238,6.219,6.219,0,0,1,1.06-3.528,15.721,15.721,0,0,1,2.861-3.364,20.665,20.665,0,0,1,3.759-2.686,12.031,12.031,0,0,1,3.692-1.423,12.471,12.471,0,0,1,4.85-.116,12.258,12.258,0,0,1,4.21,1.731,1.115,1.115,0,0,0,.994.146,2.353,2.353,0,0,0,.966-.556,2.41,2.41,0,0,0,.609-.911,1.138,1.138,0,0,0-.063-.983,6.294,6.294,0,0,0-1.9-1.786,11.548,11.548,0,0,0-2.827-1.3,16.639,16.639,0,0,0-3.306-.671,12.122,12.122,0,0,0-3.341.108,20.976,20.976,0,0,0-6.811,2.39,22.7,22.7,0,0,0-5.2,4,18.842,18.842,0,0,0-3.407,4.809A13.844,13.844,0,0,0,.043,139.1a8.718,8.718,0,0,0,.483,3.93A6.994,6.994,0,0,0,2.644,146a8.552,8.552,0,0,0,3.6,1.678,13.383,13.383,0,0,0,4.979.054,37.416,37.416,0,0,0,12.433-4.183,66.059,66.059,0,0,0,11.469-7.9A88.549,88.549,0,0,0,45.306,125.4a132.807,132.807,0,0,0,8.577-11.277q3.021-4.453,5.848-9.031a82.2,82.2,0,0,0,5.01-9.429" transform="translate(0 -67.935)" fill="#fff"/>
</svg>
